<?xml version="1.0" encoding="UTF-8"?>
<!DOCTYPE svg PUBLIC "-//W3C//DTD SVG 1.1//EN" "http://www.w3.org/Graphics/SVG/1.1/DTD/svg11.dtd">
<!-- Creator: CorelDRAW 2020 (64-Bit) -->
<svg xmlns="http://www.w3.org/2000/svg" xml:space="preserve" width="121.686mm" height="151.783mm" version="1.1" style="shape-rendering:geometricPrecision; text-rendering:geometricPrecision; image-rendering:optimizeQuality; fill-rule:evenodd; clip-rule:evenodd"
viewBox="0 0 12168.6 15178.28"
 xmlns:xlink="http://www.w3.org/1999/xlink"
 xmlns:xodm="http://www.corel.com/coreldraw/odm/2003">
 <defs>
  <style type="text/css">
   <![CDATA[
    .fil0 {fill:white}
   ]]>
  </style>
 </defs>
 <g id="Capa_x0020_1">
  <metadata id="CorelCorpID_0Corel-Layer"/>
  <g id="_2816856980128">
   <path class="fil0" d="M2961.91 11036.59c0,-350.44 77.19,-797.97 199.18,-1126.47l176.89 -387.75c124.7,-237.9 244.53,-376.73 416.08,-565.88 174.92,-192.86 257.67,-288.67 493.8,-463.63 237.2,-175.75 474.79,-297.06 748.28,-405.54 685.75,-271.99 1595.69,-211.34 2265.25,49.1 258.69,100.62 731.85,407.95 935.99,610.61 273.99,272.01 481.27,516.55 664.62,881.98 497.36,991.29 405.51,2348.25 -271.62,3230.93 -392.23,511.29 -899.37,926 -1519.53,1131.79 -556.27,184.58 -1102.84,204.98 -1680.47,90.88 -382.78,-75.6 -915.02,-328.67 -1194.94,-572.6 -50.72,-44.2 -62,-41.32 -110.85,-85.55l-147.08 -147.5c-495.68,-413.32 -909.56,-1236.08 -951.35,-1871.83 -9.47,-144.15 -24.25,-233.53 -24.25,-368.54zm-2945.91 1890.3c0,289.7 -42.9,532.58 9.48,825.2 103.99,580.93 583.59,1433.34 1242.53,1433.34l9623.31 0c136.14,0 350.6,-117.18 442.81,-170.93 897.77,-523.3 829.42,-1391.2 833.96,-2333.31l-24.76 -8395.65 -2233.98 0 0 1104.72c800.07,535.75 937.09,1549.16 470.8,2164.7 -31.13,41.11 -51.87,68.71 -84.69,111.71 -135.6,177.7 -339.29,342.57 -550,431.97 -428.68,181.86 -820.24,187.73 -1252.76,9.38 -151.95,-62.65 -329.37,-178.69 -443.12,-293.36 -173.11,-174.52 -190.66,-209.24 -315.86,-420.61 -135.76,-229.21 -156.55,-516.97 -156.55,-776.33 0,-410.11 199.73,-751.07 460.3,-1012.65 105.38,-105.77 156.61,-134.74 276.17,-214.81 -54.57,-97.14 -24.54,-930.69 -24.54,-1104.72l-4467.97 0 0 1129.27c88.51,23.63 198.76,132.99 268.64,197.79l212.92 253.53c708.02,1059.02 -232.99,2796.01 -1828.73,2270.62 -119.45,-39.33 -318.25,-142.34 -414.21,-224.08 -232.47,-198.06 -417.11,-442.8 -519.1,-757.46 -157.6,-486.23 -14.85,-1130.44 310.36,-1451.99 99.95,-98.84 206.42,-250.11 349.87,-288.41l0 -1129.27 -2184.88 0 0 8641.35z"/>
   <path class="fil0" d="M2740.97 5660.3c-673.26,156.85 -1114.32,1156.89 -485.03,1786.14 349.11,349.08 844.34,427.72 1279.02,210.78 144.33,-72.04 306.17,-221.95 399.49,-361.54 261.7,-391.44 221.01,-891.87 -48.99,-1257.82 -153.83,-208.49 -307.48,-259.41 -530.76,-377.56l0 -2233.98c0,-554.77 123.7,-933.55 335.3,-1358.6l356.79 -502.44c91.29,-116.08 109.94,-152.08 255.64,-259.9 173.27,-128.22 288.1,-282.2 620.06,-411 699.57,-271.44 505.9,-173 1113.9,-262.59l589.24 63.68c273.91,54.14 417.58,114.51 647.68,211.54l220.66 123.03c722.83,440.53 1310.66,1303.28 1310.66,2298.08l0 2356.73c-162.7,13.54 -421.95,205.54 -530.76,353.01 -620.5,841 144.26,1733.68 727.16,1733.68l220.94 0c478.62,0 981.97,-503.35 981.97,-981.98l0 -171.84c0,-445.88 -419.91,-872.23 -785.58,-957.42 0,-736.48 0,-1472.96 0,-2209.43 0,-373.35 -24.74,-696.92 -113.36,-991.36 -81.72,-271.56 -194.11,-555.98 -338.07,-791.19 -818.75,-1337.69 -2408.8,-1981.93 -3866.45,-1504.28 -258.3,84.65 -571.67,205.53 -783.76,345.52 -145.76,96.2 -341.96,226.34 -465.43,344.69 -54.87,52.61 -92.4,93.43 -146.78,147.81 -249.93,249.94 -212.57,236.57 -381,453.68 -52.22,67.3 -78.21,104.39 -116.11,178.48 -306.54,599.12 -442.11,1007.03 -441.39,1792.6l-25.04 2233.48z"/>
   <path class="fil0" d="M5195.89 8287.08l-24.55 3019.56c0,292.82 24.55,492.75 24.55,785.58l0.21 1203.11c0.75,156.86 -24.76,220.93 -24.76,392.59 199.57,133.64 344.41,147.3 589.18,147.3 0,-145.03 -55.1,-354.96 -9.68,-598.88l34.24 -1929.7c224.2,0 377.15,-19.13 564.63,24.54 0,310.93 -0.97,622 0.01,932.9 0.59,183.58 -32.61,266.45 -25.56,442.82 6.23,155.72 25.55,122.16 25.55,440.93l0 687.39c238.74,0 331.43,16.97 540.08,-122.75 0,-315.56 24.55,-541.27 24.55,-859.22l0 -4541.62c-222.46,-117.72 -327.87,-142.46 -564.63,-122.75l0 1669.35c0,317.95 -24.55,543.67 -24.55,859.22 -171.56,0 -360.18,73.56 -564.64,-24.55 0,-272.62 -42.66,-529.81 -4.96,-765.98 17.6,-110.21 -4.16,-532.56 28.02,-806.66 31.23,-266.06 -23.78,-571.2 -21.96,-809.73 1.33,-175.04 -42.85,-193.88 -403.57,-82.24 -82.17,25.44 -84.94,40.8 -162.16,58.79z"/>
   <path class="fil0" d="M4385.77 8778.06l0.49 2578.18c0.04,140.98 -25.04,203.75 -25.04,367.74 -85.26,-98.1 -91.57,-117.23 -137.93,-254.87 -35.11,-104.25 -85.05,-188.57 -107.57,-285.22 -83.89,22.4 -68.31,18.34 -125.6,168.98 -30.86,81.16 -50.57,125.1 -144.44,150.16 0,-298.39 -137.22,-467 53.45,-1100.37 18.01,-59.84 69.48,-198.06 101.98,-266.26 198.63,-416.89 9.4,-742.03 90.06,-1088.3 -165.51,44.2 -528.52,664.49 -597.45,801.86 -314.76,627.36 -390.78,1467.52 -129.34,2134.37 164.4,419.34 360.99,589.67 383.1,672.52 100.53,-26.84 75.44,-43.75 163.9,-253.45 50.1,-118.78 83.86,-173.3 179.79,-237.54 20.93,43.6 46.62,145.06 63.97,206.08l215.23 914.03c30.69,87.44 83.3,97.22 144.15,150.45 91.5,80.04 254.47,174.36 411.33,177.85l0 -5008.05c0,-84.64 -18.16,-95.06 -24.55,-171.85 -182.88,15.22 -433.5,221.18 -515.53,343.69z"/>
   <path class="fil0" d="M7208.93 12043.12c0,301.67 43.67,403.67 19.23,682.78l5.32 912.92c261.4,-60.9 858.94,-523.9 1031.22,-760.88 131.53,-180.93 251.15,-330.85 359.94,-548.38 69.76,-139.47 214.89,-508.56 229.09,-679.23 -187.47,-43.68 -340.42,-24.55 -564.63,-24.55 -7.45,89.53 -144.63,388.38 -188.13,474.7 -92.76,184.08 -125.57,290.72 -302.86,384.52 0,-320.33 -24.55,-572.65 -24.55,-908.32l0 -2847.72c-95.7,-25.56 -48.67,-21.9 -118.08,-78.31 -94.44,-76.74 -300.56,-189.03 -422,-191.73l0.07 1767.62c0.82,171.48 -25.21,238.98 -24.64,417.25l0.02 1399.33z"/>
  </g>
 </g>
</svg>
