<?xml version="1.0" encoding="UTF-8"?>
<!DOCTYPE svg PUBLIC "-//W3C//DTD SVG 1.1//EN" "http://www.w3.org/Graphics/SVG/1.1/DTD/svg11.dtd">
<!-- Creator: CorelDRAW 2020 (64-Bit) -->
<svg xmlns="http://www.w3.org/2000/svg" xml:space="preserve" width="277.406mm" height="114.919mm" version="1.1" style="shape-rendering:geometricPrecision; text-rendering:geometricPrecision; image-rendering:optimizeQuality; fill-rule:evenodd; clip-rule:evenodd"
viewBox="0 0 27740.6 11491.9"
 xmlns:xlink="http://www.w3.org/1999/xlink"
 xmlns:xodm="http://www.corel.com/coreldraw/odm/2003">
 <defs>
  <style type="text/css">
   <![CDATA[
    .fil0 {fill:#FEFEFE}
    .fil1 {fill:#FEFEFE;fill-rule:nonzero}
   ]]>
  </style>
 </defs>
 <g id="Capa_x0020_1">
  <metadata id="CorelCorpID_0Corel-Layer"/>
  <path class="fil0" d="M6187.21 1417.62c153.59,75.6 825.54,32.4 1036.73,32.4 134.39,0 0,10.8 96,-32.4l0 2570.24c-115.2,-21.6 -460.78,-237.59 -575.97,-313.18 -76.79,-54 -153.59,-107.99 -249.58,-151.19 -115.2,-64.8 -191.99,-118.79 -307.18,-172.79l0 -1933.08zm-1439.91 8218.28l1439.91 0 0 -4697.7 959.94 561.56c95.99,54 76.79,54 172.79,75.6l0 4060.54 1459.1 0 0 -9632.99 -4031.74 0 0 9632.99z"/>
  <path class="fil0" d="M20413.51 1450.02l1132.73 0 0 6771.17 -1055.93 0c-153.59,0 -76.8,-53.99 -76.8,-140.39l0 -6522.79c0,-10.8 -19.2,-53.99 -19.2,-53.99l19.2 -54zm-1478.31 -1339.12l0 9417.01c0,86.39 19.2,107.99 96,107.99l3954.95 0 0 -9632.99 -3954.95 0c-76.8,0 -96,21.6 -96,107.99z"/>
  <path class="fil0" d="M12042.84 1558.01l0 2321.86c0,140.39 0,21.59 38.4,107.99 -115.2,-10.8 -1017.54,-561.57 -1151.93,-637.16l0 -1900.68c95.99,0 1132.73,-32.4 1132.73,10.8l-19.2 97.19zm-2572.64 8077.89l1459.11 0 0 -4697.7c115.19,75.59 249.58,140.39 383.97,215.99l1171.13 669.55c-57.6,75.6 -134.39,97.2 -211.19,151.19 -95.99,54 -153.59,75.6 -230.38,129.6l0 3423.38c0,86.39 38.4,107.99 115.19,107.99l1343.92 0 0 -4870.49c-115.2,-64.8 -211.19,-107.99 -326.38,-172.79 -96,-64.8 -249.59,-129.59 -307.18,-215.99 76.79,-21.59 76.79,-21.59 134.39,-64.79l499.17 -248.39 0 -4060.54 -4031.75 0 0 9632.99z"/>
  <path class="fil0" d="M24.39 9635.9l1190.33 0c134.39,0 249.58,-215.98 307.18,-291.58l518.37 -561.56c57.59,53.99 671.96,766.75 691.15,853.14l1305.52 0 0 -9632.99 -1439.91 0 0 7192.35c-191.99,-129.59 -403.17,-496.77 -595.16,-626.36 -115.19,215.98 -326.38,388.77 -422.37,507.56 -57.6,97.2 -38.4,86.4 -153.59,161.99l0 -7235.54 -1401.52 0 0 9632.99z"/>
  <path class="fil0" d="M14231.5 9635.9l1459.11 0 0 -4589.71c0,-129.59 0,-10.8 -38.4,-107.99 172.79,43.2 633.56,367.18 863.95,485.97 57.59,32.4 76.79,43.2 134.39,75.59 76.79,54 57.59,54 172.79,75.6l0 4060.54 1439.91 0 0 -9632.99 -1439.91 0 0 4017.35 -863.95 -485.97c-76.79,-54 -191.99,-118.79 -268.78,-183.59l0 -3347.79 -1459.11 0 0 9632.99z"/>
  <path class="fil0" d="M23696.5 9635.9l4012.55 0 0 -2537.84c-326.38,-86.39 -1190.32,-755.95 -1439.91,-777.55l0 1900.68 -1132.73 0 0 -8218.28 -1439.91 0 0 9632.99z"/>
  <path class="fil1" d="M18.41 10764.75c0,-34.41 6.55,-66.98 19.66,-97.71 13.11,-30.73 30.74,-57.57 52.86,-80.51 22.14,-22.94 48.36,-41.17 78.69,-54.69 30.32,-13.52 62.69,-20.28 97.12,-20.28l502.8 0 0 142.57 -502.8 0c-14.75,0 -28.49,2.87 -41.19,8.61 -12.7,5.94 -23.76,13.72 -33.19,23.76 -9.43,9.83 -17.01,21.71 -22.74,35.23 -5.74,13.73 -8.61,28.07 -8.61,43.02l0 127.83 608.53 0 0 142.58 -608.53 0 0 216.32c0,27.04 9.43,50.19 28.27,69.44 18.86,19.26 42.21,28.89 70.08,28.89l510.18 0 0 142.58 -510.18 0c-33.6,0 -64.96,-6.36 -94.04,-19.06 -29.1,-12.7 -54.51,-29.9 -76.23,-51.62 -21.71,-21.71 -38.93,-47.11 -51.63,-76.2 -12.7,-29.09 -19.05,-60.43 -19.05,-94.03l0 -486.73z"/>
  <path class="fil1" d="M1674.42 11025.94c40.16,20.48 71.92,46.29 95.27,77.43 23.37,31.14 38.32,64.12 44.87,98.54 6.56,34.41 5.54,68.83 -3.07,103.45 -8.6,34.41 -24.38,65.55 -47.33,93.41 -22.94,28.06 -52.45,50.6 -88.51,67.8 -36.07,17.21 -78.27,25.82 -126.62,25.82l-469.62 0 0 -142.58 469.62 0c31.13,0 57.57,-7.17 79.28,-21.51 21.73,-14.34 36.27,-31.55 43.65,-51.62 7.37,-20.08 6.14,-41.38 -3.69,-63.92 -9.83,-22.53 -30.74,-41.99 -62.69,-58.38l-379.88 -196.66c-39.34,-20.48 -70.28,-45.68 -92.82,-75.59 -22.54,-29.91 -37.29,-61.25 -44.25,-94.02 -6.97,-32.78 -6.15,-65.76 2.45,-98.95 8.61,-33.18 23.97,-62.89 46.11,-89.11 22.12,-26.22 50.81,-47.52 86.05,-63.91 35.24,-16.39 76.63,-24.58 124.16,-24.58l421.68 0 0 142.57 -421.68 0c-32.77,0 -59.41,6.56 -79.9,19.67 -20.49,13.11 -33.4,28.88 -38.73,47.32 -5.32,18.64 -3.07,38.1 6.76,58.59 9.84,20.48 29.1,37.69 57.78,51.62l381.11 194.61z"/>
  <polygon class="fil1" points="2415.72,10654.13 2032.16,10654.13 2032.16,10511.56 2940.66,10511.56 2940.66,10654.13 2558.33,10654.13 2558.33,11492.39 2415.72,11492.39 "/>
  <path class="fil1" d="M3163.17 11400.2c0,-25.4 9.43,-47.52 28.28,-66.37 18.85,-18.85 40.98,-28.27 66.38,-28.27 12.3,0 24.19,2.66 35.66,7.99 11.47,5.33 21.51,12.29 30.11,20.89 8.62,8.61 15.58,18.65 20.91,30.12 5.32,11.47 7.99,23.35 7.99,35.64 0,12.29 -2.67,24.17 -7.99,35.65 -5.33,11.47 -12.29,21.51 -20.91,30.11 -8.6,8.6 -18.64,15.57 -30.11,20.89 -11.47,5.33 -23.36,7.99 -35.66,7.99 -25.4,0 -47.53,-9.42 -66.38,-28.27 -18.85,-18.84 -28.28,-40.97 -28.28,-66.37z"/>
  <path class="fil1" d="M24587.04 11349.81l501.58 0 0 142.58 -762.2 0 0 -78.87 538.46 -546.55c22.12,-22.12 37.49,-45.68 46.1,-70.67 8.6,-24.99 10.04,-47.94 4.3,-68.83 -5.74,-21.1 -18.85,-38.51 -39.34,-52.44 -20.49,-13.93 -49.18,-20.9 -86.06,-20.9l-322.09 0 0 220.01 -142.6 0 0 -362.58 464.69 0c65.57,0 120.07,14.95 163.51,44.86 43.44,29.91 73.76,67.19 90.98,111.85 17.2,44.65 20.48,92.79 9.83,144.42 -10.65,51.62 -37.7,99.56 -81.14,143.8l-386.02 393.32z"/>
  <path class="fil1" d="M25631.4 10511.56c48.15,0 93.63,9.21 136.25,27.65 42.41,18.44 79.49,43.63 111.05,75.59 31.56,31.96 56.35,69.24 74.78,111.85 18.45,42.61 27.67,88.09 27.67,136.43l0 266.72c0,49.98 -9.63,96.89 -28.9,140.73 -19.25,43.84 -44.87,82.15 -77.24,114.92 -32.37,32.78 -70.28,58.79 -113.51,78.05 -43.43,19.26 -89.74,28.89 -138.71,28.89l-98.36 0c-50.6,0 -98.55,-9.84 -143.63,-29.5 -44.87,-19.67 -84.2,-46.3 -117.81,-79.9 -33.6,-33.59 -60.03,-73.33 -79.7,-119.22 -19.67,-45.89 -29.5,-94.64 -29.5,-146.26l0 -247.05c0,-49.99 9.62,-96.69 28.88,-140.12 19.27,-43.43 45.08,-81.33 77.25,-113.7 32.38,-32.36 70.27,-57.97 113.51,-76.82 43.44,-18.84 89.74,-28.26 138.71,-28.26l119.26 0zm207.14 350.7c0,-29.5 -5.33,-56.95 -15.98,-81.94 -10.66,-24.99 -25.41,-46.91 -44.26,-65.76 -18.85,-19.05 -40.77,-33.8 -65.77,-44.45 -24.99,-10.65 -51.84,-15.98 -80.52,-15.98l-119.25 0c-29.5,0 -57.37,5.53 -83.6,16.6 -26.22,11.06 -49.18,26.42 -68.84,46.29 -19.67,19.67 -35.25,42.61 -46.72,68.83 -11.47,26.22 -17.21,54.29 -17.21,83.79l0 247.46c0,31.95 5.94,62.07 17.83,89.93 11.88,27.86 28.28,52.44 49.17,73.74 20.9,21.51 45.08,38.31 72.54,50.6 27.45,12.29 57.16,18.44 89.12,18.44l98.36 0c29.5,0 57.37,-5.74 83.59,-17.21 26.23,-11.47 49.17,-27.24 68.85,-47.52 19.66,-20.08 35.03,-43.43 46.1,-70.06 11.06,-26.63 16.59,-55.31 16.59,-85.63l0 -267.13z"/>
  <path class="fil1" d="M26311.84 11349.81l501.58 0 0 142.58 -762.2 0 0 -78.87 538.46 -546.55c22.12,-22.12 37.49,-45.68 46.1,-70.67 8.6,-24.99 10.04,-47.94 4.3,-68.83 -5.74,-21.1 -18.85,-38.51 -39.34,-52.44 -20.49,-13.93 -49.18,-20.9 -86.06,-20.9l-322.09 0 0 220.01 -142.6 0 0 -362.58 464.69 0c65.57,0 120.07,14.95 163.51,44.86 43.44,29.91 73.76,67.19 90.98,111.85 17.2,44.65 20.48,92.79 9.83,144.42 -10.65,51.62 -37.7,99.56 -81.14,143.8l-386.02 393.32z"/>
  <path class="fil1" d="M27356.2 10511.56c48.15,0 93.63,9.21 136.25,27.65 42.41,18.44 79.49,43.63 111.05,75.59 31.56,31.96 56.35,69.24 74.78,111.85 18.45,42.61 27.67,88.09 27.67,136.43l0 266.72c0,49.98 -9.63,96.89 -28.9,140.73 -19.25,43.84 -44.87,82.15 -77.24,114.92 -32.37,32.78 -70.28,58.79 -113.51,78.05 -43.43,19.26 -89.74,28.89 -138.71,28.89l-98.36 0c-50.6,0 -98.55,-9.84 -143.63,-29.5 -44.87,-19.67 -84.2,-46.3 -117.81,-79.9 -33.6,-33.59 -60.03,-73.33 -79.7,-119.22 -19.67,-45.89 -29.5,-94.64 -29.5,-146.26l0 -247.05c0,-49.99 9.62,-96.69 28.88,-140.12 19.27,-43.43 45.08,-81.33 77.25,-113.7 32.38,-32.36 70.27,-57.97 113.51,-76.82 43.44,-18.84 89.74,-28.26 138.71,-28.26l119.26 0zm207.14 350.7c0,-29.5 -5.33,-56.95 -15.98,-81.94 -10.66,-24.99 -25.41,-46.91 -44.26,-65.76 -18.85,-19.05 -40.77,-33.8 -65.77,-44.45 -24.99,-10.65 -51.84,-15.98 -80.52,-15.98l-119.25 0c-29.5,0 -57.37,5.53 -83.6,16.6 -26.22,11.06 -49.18,26.42 -68.84,46.29 -19.67,19.67 -35.25,42.61 -46.72,68.83 -11.47,26.22 -17.21,54.29 -17.21,83.79l0 247.46c0,31.95 5.94,62.07 17.83,89.93 11.88,27.86 28.28,52.44 49.17,73.74 20.9,21.51 45.08,38.31 72.54,50.6 27.45,12.29 57.16,18.44 89.12,18.44l98.36 0c29.5,0 57.37,-5.74 83.59,-17.21 26.23,-11.47 49.17,-27.24 68.85,-47.52 19.66,-20.08 35.03,-43.43 46.1,-70.06 11.06,-26.63 16.59,-55.31 16.59,-85.63l0 -267.13z"/>
  <rect class="fil0" x="3998.55" y="10899.41" width="19736.35" height="183.59"/>
 </g>
</svg>
