<?xml version="1.0" encoding="UTF-8"?>
<!DOCTYPE svg PUBLIC "-//W3C//DTD SVG 1.1//EN" "http://www.w3.org/Graphics/SVG/1.1/DTD/svg11.dtd">
<!-- Creator: CorelDRAW 2020 (64-Bit) -->
<svg xmlns="http://www.w3.org/2000/svg" xml:space="preserve" width="119.888mm" height="119.825mm" version="1.1" style="shape-rendering:geometricPrecision; text-rendering:geometricPrecision; image-rendering:optimizeQuality; fill-rule:evenodd; clip-rule:evenodd"
viewBox="0 0 11988.8 11982.5"
 xmlns:xlink="http://www.w3.org/1999/xlink"
 xmlns:xodm="http://www.corel.com/coreldraw/odm/2003">
 <defs>
  <style type="text/css">
   <![CDATA[
    .fil0 {fill:white}
   ]]>
  </style>
 </defs>
 <g id="Capa_x0020_1">
  <metadata id="CorelCorpID_0Corel-Layer"/>
  <path class="fil0" d="M4339.18 4354.06c-32.05,-834.48 360.27,-1497.2 1056.26,-1590.03 239.34,-31.92 231.49,-23.25 422.65,-115.31 517.14,-249.04 1154.21,169.2 1449.71,552.9 333.05,432.46 331.86,736.18 307.96,1258.02 -19.47,425.22 298.76,-87.66 97.06,852.56 -73.91,344.52 -149.4,214.36 -246.09,293.85 -46,37.81 -112.49,297.12 -148.63,375.51 -71.28,154.66 -202.54,355.24 -315.6,478.32 -30.12,32.8 -108.37,103.11 -117.08,156.65 -15.88,97.64 37.78,386.15 74.31,469.34 94.93,216.16 391.2,329.68 628.26,434.81 252.55,112 504.71,224 743.68,335.23 468.27,217.96 1043.73,473.41 1128.98,999.01 25.22,155.5 17.32,340.84 18.76,504.27 1.11,126.43 -16.71,124.29 -84.45,182.44 -54.1,46.44 -82.53,80.1 -138.05,131.46 -41.29,38.2 -97.5,81.99 -147.98,121.91 -1040.34,822.47 -2367.07,1299.46 -3893.06,1041.09 -572.94,-97 -1141.63,-297.82 -1579.2,-547.23 -506.72,-288.82 -565.87,-365.52 -937.66,-665.54 -116.25,-93.8 -169.68,-160.88 -165.44,-384.68 7.94,-419.84 34.14,-572.08 256.02,-818.34 436.52,-484.48 1431.24,-738.3 2086.65,-1119.83 105.74,-61.55 179.27,-156.73 213.64,-310.24 16.83,-75.2 23.98,-155.98 33.01,-234.37 14.44,-125.47 31.17,-132.06 -37.16,-208.38 -174.02,-194.38 -397.91,-546.55 -475.96,-841.76 -32.18,-121.68 -19.03,-110.5 -139.03,-134.42 -137.72,-27.45 -158.43,-207.35 -183.13,-353.62 -18.37,-108.74 -64.74,-378.05 -36.85,-475.97 56.35,-197.86 147.17,100.23 128.42,-387.65zm7643.44 1887.91c42.63,-900.18 -139.44,-1793.15 -446.95,-2528.86 -254.99,-610.03 -645.66,-1246.51 -1089.9,-1727.04 -1084.61,-1173.22 -2524.03,-1893.11 -4195.29,-1976.37 -1488.81,-74.17 -3087.3,487.65 -4166.3,1452.03 -378.46,338.25 -564.82,513.15 -905.19,967.93 -194.94,260.46 -410.9,594.43 -569.95,928.19 -921.4,1933.49 -793.84,4110.87 359.2,5903.47 101.99,158.55 201.75,291.47 313.44,435.73l727.9 770.57c130.23,124.18 270.6,228.28 412.96,336.11 915.36,693.33 2088.68,1122.29 3317.49,1176.51 1243.1,54.85 2551.38,-309.61 3529.32,-965.86 426.62,-286.29 869.86,-665.67 1201.01,-1046.69l176.46 -197.89c64.29,-70.09 106.41,-128.86 166.33,-208.48 686.23,-911.88 1111.71,-2099.69 1169.47,-3319.35z"/>
 </g>
</svg>
